<?xml version="1.0" standalone="no"?><!DOCTYPE svg PUBLIC "-//W3C//DTD SVG 1.1//EN" "http://www.w3.org/Graphics/SVG/1.1/DTD/svg11.dtd"><svg t="1577241149787" class="icon" viewBox="0 0 1024 1024" version="1.1" xmlns="http://www.w3.org/2000/svg" p-id="1876" xmlns:xlink="http://www.w3.org/1999/xlink" width="200" height="200"><defs><style type="text/css"></style></defs><path d="M512.00358 680.555758c19.603729 0 35.50152 15.902905 35.50152 35.507657 0 19.603729-15.897791 35.49436-35.50152 35.49436-19.606798 0-35.50152-15.89063-35.50152-35.49436-0.011252-19.604752 15.891653-35.507657 35.50152-35.507657zM512.00358 1022.84004s-89.357817-33.685886-89.357817-81.958215c0-34.1646 33.764649-111.278397 59.792141-165.634889 8.907345 4.458787 18.923506 7.030338 29.565676 7.030338 10.636033 0 20.654239-2.571551 29.559539-7.030338 26.020332 54.356492 59.789072 131.469267 59.789073 165.634889 0 48.273352-89.348611 81.958215-89.348612 81.958215zM922.900403 1022.427815c-22.934266 0-41.583637-18.665737-41.583637-41.595912 0-116.06451-52.974565-223.105065-145.322296-293.683605-18.226916-13.925655-21.71191-40.09226-7.790347-58.321222 13.873487-18.194184 40.030887-21.718047 58.269055-7.803644l0.011251 0.023526c113.129832 86.458941 178.012908 217.587585 178.012908 359.783922-0.001023 22.937335-18.656531 41.596935-41.596934 41.596935z" fill="" p-id="1877"></path><path d="M512.00358 0c-168.591048 0-305.74555 137.165753-305.745549 305.756801 0 102.967398 53.003206 199.020045 138.005548 255.12466C174.652707 628.94164 59.507777 795.918564 59.507777 980.831903c0 22.936312 18.658577 41.595912 41.592843 41.595912 22.931198 0 41.581591-18.6596 41.581591-41.595912 0-203.648633 165.683988-369.333644 369.321369-369.324438 168.594117 0 305.747595-137.159616 305.747595-305.750664 0-168.594117-137.159616-305.756801-305.747595-305.756801z m0 528.316665c-122.719447 0-222.561909-99.842463-222.561909-222.567024 0-122.72047 99.842463-222.564978 222.561909-222.564978 122.730699 0 222.568047 99.8486 222.568047 222.564978 0 122.724561-99.837348 222.567024-222.568047 222.567024z" fill="" p-id="1878"></path></svg>